<svg xmlns="http://www.w3.org/2000/svg" xmlns:xlink="http://www.w3.org/1999/xlink" width="209.315" height="28.483" viewBox="0 0 209.315 28.483"><defs><style>.a{fill:url(#a);}</style><linearGradient id="a" x1="0.5" x2="0.5" y2="1" gradientUnits="objectBoundingBox"><stop offset="0" stop-color="#535353"/><stop offset="0.609" stop-color="#242424"/><stop offset="0.78"/><stop offset="1"/></linearGradient></defs><g transform="translate(-632.292 -495.406)"><g transform="translate(632.292 495.645)"><path class="a" d="M651.507,519.147H641.084l-1.671,4.933h-7.121l10.1-27.927h7.877l10.1,27.927h-7.2Zm-1.75-5.251L646.3,503.672,642.874,513.9Z" transform="translate(-632.292 -496.153)"/><path class="a" d="M749.113,496.153l-7.372,14.258a20.55,20.55,0,0,0-2.3,9.438v4.231h-6.8v-4.231a20.55,20.55,0,0,0-2.3-9.438l-7.371-14.258h7.718l5.41,11.7,5.37-11.7Z" transform="translate(-694.015 -496.153)"/><path class="a" d="M826.894,519.147H816.471L814.8,524.08h-7.121l10.1-27.927h7.877l10.1,27.927h-7.2Zm-1.751-5.251-3.461-10.224L818.261,513.9Z" transform="translate(-751.667 -496.153)"/></g><g transform="translate(717.172 495.406)"><path class="a" d="M932.6,496.153l-7.718,27.927h-1.949L915.3,498.938l-7.757,25.142h-1.87l-7.6-27.927h1.909l6.683,25.421,7.678-25.421h1.989l7.6,25.58,6.723-25.58Z" transform="translate(-898.07 -495.914)"/><path class="a" d="M1023.259,522.079a12.678,12.678,0,0,1-4.853-5.072,16.389,16.389,0,0,1,0-14.739,12.72,12.72,0,0,1,4.853-5.053,14.294,14.294,0,0,1,13.923,0,12.725,12.725,0,0,1,4.854,5.053,16.389,16.389,0,0,1,0,14.739,12.683,12.683,0,0,1-4.854,5.072,14.294,14.294,0,0,1-13.923,0Zm12.929-1.333a10.967,10.967,0,0,0,4.2-4.416,15.434,15.434,0,0,0,0-13.406,10.97,10.97,0,0,0-4.2-4.416,12.251,12.251,0,0,0-11.934,0,11.1,11.1,0,0,0-4.217,4.416,15.256,15.256,0,0,0,0,13.406,11.1,11.1,0,0,0,4.217,4.416,12.251,12.251,0,0,0,11.934,0Z" transform="translate(-978.783 -495.406)"/><path class="a" d="M1121.665,522.079a12.676,12.676,0,0,1-4.853-5.072,16.388,16.388,0,0,1,0-14.739,12.718,12.718,0,0,1,4.853-5.053,14.295,14.295,0,0,1,13.924,0,12.724,12.724,0,0,1,4.853,5.053,16.387,16.387,0,0,1,0,14.739,12.683,12.683,0,0,1-4.853,5.072,14.295,14.295,0,0,1-13.924,0Zm12.929-1.333a10.967,10.967,0,0,0,4.2-4.416,15.433,15.433,0,0,0,0-13.406,10.97,10.97,0,0,0-4.2-4.416,12.252,12.252,0,0,0-11.935,0,11.1,11.1,0,0,0-4.217,4.416,15.256,15.256,0,0,0,0,13.406,11.1,11.1,0,0,0,4.217,4.416,12.251,12.251,0,0,0,11.935,0Z" transform="translate(-1045.762 -495.406)"/><path class="a" d="M1235.712,499.853q3.839,3.7,3.839,10.3t-3.839,10.264q-3.84,3.66-10.92,3.66h-7.837V496.153h7.837Q1231.872,496.153,1235.712,499.853Zm-1.293,19.433q3.3-3.282,3.3-9.13,0-5.887-3.3-9.189t-9.627-3.3h-6.047v24.9h6.047Q1231.117,522.568,1234.419,519.286Z" transform="translate(-1115.115 -495.914)"/></g></g></svg>